<mxfile host="app.diagrams.net" modified="2021-03-03T13:51:51.720Z" agent="5.0 (Macintosh; Intel Mac OS X 10_15_7) AppleWebKit/537.36 (KHTML, like Gecko) Chrome/88.0.4324.192 Safari/537.36" etag="bwMq6X0rTxuZbALj7vpa" version="14.4.3" type="github">
  <diagram id="1-7rYMEe3Bnaz8u623oW" name="Page-1">
    <mxGraphModel dx="1186" dy="649" grid="1" gridSize="10" guides="1" tooltips="1" connect="1" arrows="1" fold="1" page="1" pageScale="1" pageWidth="827" pageHeight="1169" math="0" shadow="0">
      <root>
        <mxCell id="0" />
        <mxCell id="1" parent="0" />
        <mxCell id="gsfmFI1PHsSS8G7zZHxH-1" value="In-game" style="shape=umlFrame;whiteSpace=wrap;html=1;" vertex="1" parent="1">
          <mxGeometry x="20" y="20" width="760" height="430" as="geometry" />
        </mxCell>
        <mxCell id="gsfmFI1PHsSS8G7zZHxH-2" value="" style="ellipse;whiteSpace=wrap;html=1;aspect=fixed;fillColor=#000000;" vertex="1" parent="1">
          <mxGeometry x="414" y="90" width="20" height="20" as="geometry" />
        </mxCell>
        <mxCell id="gsfmFI1PHsSS8G7zZHxH-3" value="From main menu" style="text;html=1;strokeColor=none;fillColor=none;align=center;verticalAlign=middle;whiteSpace=wrap;rounded=0;" vertex="1" parent="1">
          <mxGeometry x="404" y="50" width="40" height="20" as="geometry" />
        </mxCell>
        <mxCell id="gsfmFI1PHsSS8G7zZHxH-7" value="Exit" style="rounded=0;whiteSpace=wrap;html=1;" vertex="1" parent="1">
          <mxGeometry x="240" y="40" width="80" height="40" as="geometry" />
        </mxCell>
        <mxCell id="gsfmFI1PHsSS8G7zZHxH-9" value="[End game]" style="endArrow=classic;html=1;" edge="1" parent="1" source="gsfmFI1PHsSS8G7zZHxH-20" target="gsfmFI1PHsSS8G7zZHxH-7">
          <mxGeometry width="50" height="50" relative="1" as="geometry">
            <mxPoint x="394" y="410" as="sourcePoint" />
            <mxPoint x="444" y="360" as="targetPoint" />
          </mxGeometry>
        </mxCell>
        <mxCell id="gsfmFI1PHsSS8G7zZHxH-15" value="" style="group" vertex="1" connectable="0" parent="1">
          <mxGeometry x="170" y="30" width="20" height="20" as="geometry" />
        </mxCell>
        <mxCell id="gsfmFI1PHsSS8G7zZHxH-16" value="" style="ellipse;whiteSpace=wrap;html=1;aspect=fixed;shadow=0;" vertex="1" parent="gsfmFI1PHsSS8G7zZHxH-15">
          <mxGeometry width="20" height="20" as="geometry" />
        </mxCell>
        <mxCell id="gsfmFI1PHsSS8G7zZHxH-17" value="" style="ellipse;whiteSpace=wrap;html=1;aspect=fixed;fillColor=#000000;shadow=0;" vertex="1" parent="gsfmFI1PHsSS8G7zZHxH-15">
          <mxGeometry x="2.5" y="2.5" width="15" height="15" as="geometry" />
        </mxCell>
        <mxCell id="gsfmFI1PHsSS8G7zZHxH-18" value="" style="endArrow=classic;html=1;entryX=1;entryY=0.5;entryDx=0;entryDy=0;" edge="1" parent="1" source="gsfmFI1PHsSS8G7zZHxH-7" target="gsfmFI1PHsSS8G7zZHxH-16">
          <mxGeometry width="50" height="50" relative="1" as="geometry">
            <mxPoint x="334" y="380" as="sourcePoint" />
            <mxPoint x="434" y="320" as="targetPoint" />
          </mxGeometry>
        </mxCell>
        <mxCell id="gsfmFI1PHsSS8G7zZHxH-19" value="Return to main menu" style="text;html=1;strokeColor=none;fillColor=none;align=center;verticalAlign=middle;whiteSpace=wrap;rounded=0;shadow=0;" vertex="1" parent="1">
          <mxGeometry x="150" y="60" width="60" height="20" as="geometry" />
        </mxCell>
        <mxCell id="gsfmFI1PHsSS8G7zZHxH-20" value="" style="rhombus;whiteSpace=wrap;html=1;" vertex="1" parent="1">
          <mxGeometry x="404" y="145" width="96" height="55" as="geometry" />
        </mxCell>
        <mxCell id="gsfmFI1PHsSS8G7zZHxH-21" value="" style="endArrow=classic;html=1;" edge="1" parent="1" source="gsfmFI1PHsSS8G7zZHxH-2" target="gsfmFI1PHsSS8G7zZHxH-20">
          <mxGeometry width="50" height="50" relative="1" as="geometry">
            <mxPoint x="444" y="290" as="sourcePoint" />
            <mxPoint x="494" y="240" as="targetPoint" />
          </mxGeometry>
        </mxCell>
        <mxCell id="gsfmFI1PHsSS8G7zZHxH-26" value="Rotate" style="rounded=0;whiteSpace=wrap;html=1;" vertex="1" parent="1">
          <mxGeometry x="30" y="265" width="80" height="40" as="geometry" />
        </mxCell>
        <mxCell id="gsfmFI1PHsSS8G7zZHxH-27" value="Move" style="rounded=0;whiteSpace=wrap;html=1;" vertex="1" parent="1">
          <mxGeometry x="160" y="350" width="80" height="40" as="geometry" />
        </mxCell>
        <mxCell id="gsfmFI1PHsSS8G7zZHxH-38" value="Hint" style="rounded=0;whiteSpace=wrap;html=1;" vertex="1" parent="1">
          <mxGeometry x="690" y="130" width="80" height="40" as="geometry" />
        </mxCell>
        <mxCell id="gsfmFI1PHsSS8G7zZHxH-39" value="Auto-solve" style="rounded=0;whiteSpace=wrap;html=1;" vertex="1" parent="1">
          <mxGeometry x="690" y="300" width="80" height="40" as="geometry" />
        </mxCell>
        <mxCell id="gsfmFI1PHsSS8G7zZHxH-40" value="Undo" style="rounded=0;whiteSpace=wrap;html=1;" vertex="1" parent="1">
          <mxGeometry x="384" y="400" width="80" height="40" as="geometry" />
        </mxCell>
        <mxCell id="gsfmFI1PHsSS8G7zZHxH-41" value="Redo" style="rounded=0;whiteSpace=wrap;html=1;" vertex="1" parent="1">
          <mxGeometry x="530" y="390" width="80" height="40" as="geometry" />
        </mxCell>
        <mxCell id="gsfmFI1PHsSS8G7zZHxH-43" value="Select" style="rounded=0;whiteSpace=wrap;html=1;" vertex="1" parent="1">
          <mxGeometry x="230" y="200" width="80" height="40" as="geometry" />
        </mxCell>
        <mxCell id="gsfmFI1PHsSS8G7zZHxH-44" value="[Choose piece]" style="endArrow=classic;html=1;" edge="1" parent="1" source="gsfmFI1PHsSS8G7zZHxH-20" target="gsfmFI1PHsSS8G7zZHxH-43">
          <mxGeometry width="50" height="50" relative="1" as="geometry">
            <mxPoint x="390" y="260" as="sourcePoint" />
            <mxPoint x="440" y="210" as="targetPoint" />
          </mxGeometry>
        </mxCell>
        <mxCell id="gsfmFI1PHsSS8G7zZHxH-46" value="" style="rhombus;whiteSpace=wrap;html=1;" vertex="1" parent="1">
          <mxGeometry x="180" y="270" width="40" height="30" as="geometry" />
        </mxCell>
        <mxCell id="gsfmFI1PHsSS8G7zZHxH-47" value="[Move]" style="endArrow=classic;html=1;" edge="1" parent="1" source="gsfmFI1PHsSS8G7zZHxH-46" target="gsfmFI1PHsSS8G7zZHxH-27">
          <mxGeometry width="50" height="50" relative="1" as="geometry">
            <mxPoint x="390" y="260" as="sourcePoint" />
            <mxPoint x="440" y="210" as="targetPoint" />
          </mxGeometry>
        </mxCell>
        <mxCell id="gsfmFI1PHsSS8G7zZHxH-48" value="[Rotate]" style="endArrow=classic;html=1;" edge="1" parent="1" source="gsfmFI1PHsSS8G7zZHxH-46" target="gsfmFI1PHsSS8G7zZHxH-26">
          <mxGeometry width="50" height="50" relative="1" as="geometry">
            <mxPoint x="390" y="260" as="sourcePoint" />
            <mxPoint x="440" y="210" as="targetPoint" />
          </mxGeometry>
        </mxCell>
        <mxCell id="gsfmFI1PHsSS8G7zZHxH-49" value="" style="endArrow=classic;html=1;" edge="1" parent="1" source="gsfmFI1PHsSS8G7zZHxH-43" target="gsfmFI1PHsSS8G7zZHxH-46">
          <mxGeometry width="50" height="50" relative="1" as="geometry">
            <mxPoint x="390" y="260" as="sourcePoint" />
            <mxPoint x="440" y="210" as="targetPoint" />
          </mxGeometry>
        </mxCell>
        <mxCell id="gsfmFI1PHsSS8G7zZHxH-50" value="" style="endArrow=classic;html=1;entryX=0;entryY=0.5;entryDx=0;entryDy=0;" edge="1" parent="1" source="gsfmFI1PHsSS8G7zZHxH-26" target="gsfmFI1PHsSS8G7zZHxH-20">
          <mxGeometry width="50" height="50" relative="1" as="geometry">
            <mxPoint x="390" y="260" as="sourcePoint" />
            <mxPoint x="160" y="160" as="targetPoint" />
            <Array as="points">
              <mxPoint x="240" y="160" />
            </Array>
          </mxGeometry>
        </mxCell>
        <mxCell id="gsfmFI1PHsSS8G7zZHxH-51" value="" style="endArrow=classic;html=1;" edge="1" parent="1" source="gsfmFI1PHsSS8G7zZHxH-27" target="gsfmFI1PHsSS8G7zZHxH-20">
          <mxGeometry width="50" height="50" relative="1" as="geometry">
            <mxPoint x="390" y="260" as="sourcePoint" />
            <mxPoint x="440" y="210" as="targetPoint" />
            <Array as="points">
              <mxPoint x="360" y="280" />
            </Array>
          </mxGeometry>
        </mxCell>
        <mxCell id="gsfmFI1PHsSS8G7zZHxH-54" value="[Save game]" style="endArrow=classic;html=1;" edge="1" parent="1" source="gsfmFI1PHsSS8G7zZHxH-20" target="gsfmFI1PHsSS8G7zZHxH-55">
          <mxGeometry width="50" height="50" relative="1" as="geometry">
            <mxPoint x="560" y="250" as="sourcePoint" />
            <mxPoint x="480" y="200" as="targetPoint" />
          </mxGeometry>
        </mxCell>
        <mxCell id="gsfmFI1PHsSS8G7zZHxH-55" value="Save" style="ellipse;whiteSpace=wrap;html=1;" vertex="1" parent="1">
          <mxGeometry x="500" y="70" width="80" height="40" as="geometry" />
        </mxCell>
        <mxCell id="gsfmFI1PHsSS8G7zZHxH-56" value="" style="endArrow=classic;html=1;entryX=1;entryY=0.5;entryDx=0;entryDy=0;" edge="1" parent="1" source="gsfmFI1PHsSS8G7zZHxH-55" target="gsfmFI1PHsSS8G7zZHxH-20">
          <mxGeometry width="50" height="50" relative="1" as="geometry">
            <mxPoint x="560" y="260" as="sourcePoint" />
            <mxPoint x="560" y="140" as="targetPoint" />
            <Array as="points">
              <mxPoint x="540" y="160" />
            </Array>
          </mxGeometry>
        </mxCell>
        <mxCell id="gsfmFI1PHsSS8G7zZHxH-57" value="[Undo action]" style="endArrow=classic;html=1;entryX=0.25;entryY=0;entryDx=0;entryDy=0;" edge="1" parent="1" source="gsfmFI1PHsSS8G7zZHxH-20" target="gsfmFI1PHsSS8G7zZHxH-40">
          <mxGeometry width="50" height="50" relative="1" as="geometry">
            <mxPoint x="440" y="310" as="sourcePoint" />
            <mxPoint x="490" y="260" as="targetPoint" />
            <Array as="points">
              <mxPoint x="404" y="310" />
            </Array>
          </mxGeometry>
        </mxCell>
        <mxCell id="gsfmFI1PHsSS8G7zZHxH-58" value="" style="endArrow=classic;html=1;exitX=0.75;exitY=0;exitDx=0;exitDy=0;" edge="1" parent="1" source="gsfmFI1PHsSS8G7zZHxH-40" target="gsfmFI1PHsSS8G7zZHxH-20">
          <mxGeometry width="50" height="50" relative="1" as="geometry">
            <mxPoint x="440" y="310" as="sourcePoint" />
            <mxPoint x="490" y="260" as="targetPoint" />
            <Array as="points">
              <mxPoint x="464" y="220" />
            </Array>
          </mxGeometry>
        </mxCell>
        <mxCell id="gsfmFI1PHsSS8G7zZHxH-60" value="[Redo action]" style="endArrow=classic;html=1;entryX=0.25;entryY=0;entryDx=0;entryDy=0;" edge="1" parent="1" source="gsfmFI1PHsSS8G7zZHxH-20" target="gsfmFI1PHsSS8G7zZHxH-41">
          <mxGeometry x="0.4358" y="-6" width="50" height="50" relative="1" as="geometry">
            <mxPoint x="490" y="360" as="sourcePoint" />
            <mxPoint x="540" y="310" as="targetPoint" />
            <mxPoint as="offset" />
          </mxGeometry>
        </mxCell>
        <mxCell id="gsfmFI1PHsSS8G7zZHxH-61" value="" style="endArrow=classic;html=1;exitX=0.75;exitY=0;exitDx=0;exitDy=0;" edge="1" parent="1" source="gsfmFI1PHsSS8G7zZHxH-41" target="gsfmFI1PHsSS8G7zZHxH-20">
          <mxGeometry width="50" height="50" relative="1" as="geometry">
            <mxPoint x="490" y="360" as="sourcePoint" />
            <mxPoint x="540" y="310" as="targetPoint" />
            <Array as="points" />
          </mxGeometry>
        </mxCell>
        <mxCell id="gsfmFI1PHsSS8G7zZHxH-64" value="Help &lt;br&gt;(drop-down)" style="rounded=0;whiteSpace=wrap;html=1;fillColor=#f5f5f5;strokeColor=#666666;fontColor=#333333;" vertex="1" parent="1">
          <mxGeometry x="590" y="190" width="80" height="40" as="geometry" />
        </mxCell>
        <mxCell id="gsfmFI1PHsSS8G7zZHxH-65" value="[Get help]" style="endArrow=classic;html=1;" edge="1" parent="1" source="gsfmFI1PHsSS8G7zZHxH-20" target="gsfmFI1PHsSS8G7zZHxH-64">
          <mxGeometry width="50" height="50" relative="1" as="geometry">
            <mxPoint x="490" y="330" as="sourcePoint" />
            <mxPoint x="540" y="280" as="targetPoint" />
          </mxGeometry>
        </mxCell>
        <mxCell id="gsfmFI1PHsSS8G7zZHxH-66" value="" style="rhombus;whiteSpace=wrap;html=1;" vertex="1" parent="1">
          <mxGeometry x="710" y="215" width="40" height="30" as="geometry" />
        </mxCell>
        <mxCell id="gsfmFI1PHsSS8G7zZHxH-69" value="" style="endArrow=classic;html=1;" edge="1" parent="1" source="gsfmFI1PHsSS8G7zZHxH-64" target="gsfmFI1PHsSS8G7zZHxH-66">
          <mxGeometry width="50" height="50" relative="1" as="geometry">
            <mxPoint x="490" y="330" as="sourcePoint" />
            <mxPoint x="720" y="210" as="targetPoint" />
          </mxGeometry>
        </mxCell>
        <mxCell id="gsfmFI1PHsSS8G7zZHxH-70" value="[Solve puzzle]" style="endArrow=classic;html=1;" edge="1" parent="1" source="gsfmFI1PHsSS8G7zZHxH-66" target="gsfmFI1PHsSS8G7zZHxH-39">
          <mxGeometry width="50" height="50" relative="1" as="geometry">
            <mxPoint x="490" y="330" as="sourcePoint" />
            <mxPoint x="540" y="280" as="targetPoint" />
          </mxGeometry>
        </mxCell>
        <mxCell id="gsfmFI1PHsSS8G7zZHxH-71" value="[Get a hint]" style="endArrow=classic;html=1;" edge="1" parent="1" source="gsfmFI1PHsSS8G7zZHxH-66" target="gsfmFI1PHsSS8G7zZHxH-38">
          <mxGeometry width="50" height="50" relative="1" as="geometry">
            <mxPoint x="490" y="330" as="sourcePoint" />
            <mxPoint x="540" y="280" as="targetPoint" />
          </mxGeometry>
        </mxCell>
        <mxCell id="gsfmFI1PHsSS8G7zZHxH-72" value="" style="endArrow=classic;html=1;" edge="1" parent="1" source="gsfmFI1PHsSS8G7zZHxH-39" target="gsfmFI1PHsSS8G7zZHxH-20">
          <mxGeometry width="50" height="50" relative="1" as="geometry">
            <mxPoint x="620" y="330" as="sourcePoint" />
            <mxPoint x="600" y="260" as="targetPoint" />
          </mxGeometry>
        </mxCell>
        <mxCell id="gsfmFI1PHsSS8G7zZHxH-73" value="" style="endArrow=classic;html=1;" edge="1" parent="1" source="gsfmFI1PHsSS8G7zZHxH-38" target="gsfmFI1PHsSS8G7zZHxH-20">
          <mxGeometry width="50" height="50" relative="1" as="geometry">
            <mxPoint x="490" y="330" as="sourcePoint" />
            <mxPoint x="590" y="140" as="targetPoint" />
            <Array as="points">
              <mxPoint x="580" y="140" />
            </Array>
          </mxGeometry>
        </mxCell>
      </root>
    </mxGraphModel>
  </diagram>
</mxfile>
